<svg xmlns="http://www.w3.org/2000/svg" xmlns:xlink="http://www.w3.org/1999/xlink" viewBox="0 0 229.47 51"><defs><style>.cls-1,.cls-2{fill:none;}.cls-1{clip-rule:evenodd;}.cls-3{clip-path:url(#clip-path);}.cls-4{clip-path:url(#clip-path-2);}.cls-5{fill:#2bb7bd;}.cls-6{fill:#fff;}</style><clipPath id="clip-path" transform="translate(-233 -4.29)"><path class="cls-1" d="M245.8,17.87a1.21,1.21,0,0,0,2,.2c.64-.6.77-1.67-.05-1.92C247.27,16,244.85,16,245.8,17.87Zm6.07-7c2.32-1.75,3-1.6,3.56-1.53s.61.67.26,1.76-1.38,3.21-2.07,5.08c-1.88,5.12,1.29,8.52,5.43,10.74,2.8,1.5,6.29,3.18,9.17,6,2.21,2.17,2.29,4.11,2.89,4.64.3.27,1.66,1.2.93-3.38a9.82,9.82,0,0,0-5.7-7.57c-2.23-1.12-4.23-1.18-5.8-1.74-8.28-3,.66-16.51,13.75-10.93,12.49,5.33,13.85,27-1.41,28.71a10.08,10.08,0,0,1-4.9,5.3c-3.07,1.5-5.39,1-8.77,1.1-2.86.09-5.22-.31-5-1.73.26-1.92,4.9-.74,4.92-4.86,0-2.35-2.54-3.75-3.89-1.27a15,15,0,0,1-2.32,3.55c-2.49,2.87-5.78,6.58-8.9,5.33-.76-.3-1.06-1.14.19-2.24.54-.47,1.08-.85,1.61-1.39.93-.94,1.54-3.18,1.86-4.81l0-.1A7.93,7.93,0,0,1,244,45.77c-1.56,1-2.62.24-1.76-.88a27.56,27.56,0,0,0,4.18-8.16c.26-.78.52-1.26.77-1.24l-.15-.71c-1.47-6.78-2.51-8.79-3.72-10-.89-.89-6.52-5.77-5.1-7.68,2-2.69,5.38-3.94,8.46-4.49.35-.06,1.21-.14,2-.24l0,0a20.46,20.46,0,0,1,2.11-2.42c.47-.55,1.47-.47,1.3.08C252,10.3,252,10.58,251.87,10.86Z"/></clipPath><clipPath id="clip-path-2" transform="translate(-233 -4.29)"><rect class="cls-2" width="1440" height="1762"/></clipPath></defs><title>Asset 1</title><g id="Layer_2" data-name="Layer 2"><g id="Layer_1-2" data-name="Layer 1"><g class="cls-3"><g class="cls-4"><rect class="cls-5" width="56" height="51"/></g></g><path class="cls-6" d="M296.33,36.71l2.3-2.73a9.17,9.17,0,0,0,6.11,2.43c2,0,3-.92,3-2.08,0-1.32-1.08-1.73-3.92-2.38-3.92-.89-6.7-2-6.7-5.59,0-3.43,2.81-5.78,6.86-5.78a10.72,10.72,0,0,1,7.27,2.57L309.19,26A8.61,8.61,0,0,0,303.9,24c-1.7,0-2.73.89-2.73,2,0,1.35,1.11,1.78,4,2.43,4,.89,6.65,2.08,6.65,5.51s-2.68,5.89-7.22,5.89A11.92,11.92,0,0,1,296.33,36.71Z" transform="translate(-233 -4.29)"/><path class="cls-6" d="M322.85,38.58a5.09,5.09,0,0,1-3.22,1.22,4.05,4.05,0,0,1-4.19-4.27V28.69h-1.92V25.5h1.92V21.66h3.78V25.5h3v3.19h-3V34.9a1.43,1.43,0,0,0,1.32,1.57A2,2,0,0,0,321.9,36Z" transform="translate(-233 -4.29)"/><path class="cls-6" d="M337.68,31.12v8.35h-3.81V38.06a5.55,5.55,0,0,1-4.11,1.73c-3,0-5.27-1.78-5.27-4.46s2.57-4.65,5.81-4.65a10.09,10.09,0,0,1,3.57.7v-.27c0-1.49-.92-2.78-3.22-2.78a8,8,0,0,0-3.62,1l-1.32-2.62a12.82,12.82,0,0,1,5.84-1.54C335.2,25.17,337.68,27.47,337.68,31.12Zm-3.81,3.95v-1.3a8.84,8.84,0,0,0-3-.51c-1.43,0-2.57.84-2.57,2s1,1.84,2.35,1.84C332.17,37.06,333.6,36.36,333.87,35.06Z" transform="translate(-233 -4.29)"/><path class="cls-6" d="M340,37.69l1.7-2.73a8,8,0,0,0,4.68,1.57c1.05,0,1.81-.43,1.81-1.05,0-.87-1-1.14-2.46-1.51-2.86-.7-5.08-1.49-5.11-4.24s2.16-4.54,5.46-4.54a10.16,10.16,0,0,1,5.51,1.73L350,29.71A7.91,7.91,0,0,0,346,28.47c-1,0-1.65.35-1.65.84,0,.76.57,1,2.46,1.49,2.41.62,5.08,1.43,5.08,4.49,0,2.76-2.24,4.51-5.67,4.51A10.33,10.33,0,0,1,340,37.69Z" transform="translate(-233 -4.29)"/><path class="cls-6" d="M367.85,30.58v8.89H364V31.42a2.66,2.66,0,0,0-2.65-2.92,2.78,2.78,0,0,0-2.92,2.7v8.27h-3.95V20.58h3.95V27.2a5.24,5.24,0,0,1,9.38,3.38Z" transform="translate(-233 -4.29)"/><path class="cls-5" d="M387.65,20.9V39.47h-4V31.79h-8.46v7.67h-4V20.9h4v7.3h8.46V20.9Z" transform="translate(-233 -4.29)"/><path class="cls-5" d="M404.44,25.5v14h-3.95V37.71a5,5,0,0,1-4.22,2.08,5.1,5.1,0,0,1-5.19-5.4V25.5h3.81v8.05a2.66,2.66,0,0,0,2.65,2.92,2.78,2.78,0,0,0,2.92-2.7l0,.08V25.5Z" transform="translate(-233 -4.29)"/><path class="cls-5" d="M422.87,32.47c0,4.3-2.7,7.32-6.43,7.32a5.7,5.7,0,0,1-4.68-2.3v2h-3.95V20.58h3.95v6.86a5.75,5.75,0,0,1,4.68-2.27C420.17,25.17,422.87,28.2,422.87,32.47Zm-3.84,0a3.7,3.7,0,0,0-3.73-4,3.56,3.56,0,0,0-3.54,3.43V33a3.57,3.57,0,0,0,3.54,3.46A3.71,3.71,0,0,0,419,32.47Z" transform="translate(-233 -4.29)"/><path class="cls-5" d="M425.39,37.28a2.49,2.49,0,0,1,2.51-2.41,2.46,2.46,0,0,1,0,4.92A2.51,2.51,0,0,1,425.39,37.28Z" transform="translate(-233 -4.29)"/><path class="cls-5" d="M432.71,32.47a7.57,7.57,0,0,1,7.65-7.3,7.3,7.3,0,0,1,5.49,2.38l-2.62,2.24a4,4,0,0,0-2.89-1.3,3.92,3.92,0,0,0-3.78,3.95,4,4,0,0,0,3.81,4,4.13,4.13,0,0,0,2.95-1.35l2.62,2.22a7.37,7.37,0,0,1-5.59,2.46A7.57,7.57,0,0,1,432.71,32.47Z" transform="translate(-233 -4.29)"/><path class="cls-5" d="M447.23,32.47a7.63,7.63,0,0,1,15.24,0,7.63,7.63,0,0,1-15.24,0Zm11.48,0a3.85,3.85,0,1,0-3.84,4A4,4,0,0,0,458.71,32.47Z" transform="translate(-233 -4.29)"/></g></g></svg>