<svg xmlns="http://www.w3.org/2000/svg" xmlns:xlink="http://www.w3.org/1999/xlink" viewBox="0 0 70 53"><defs><style>.cls-1{fill:none;}.cls-2{clip-path:url(#clip-path);}.cls-3{fill:#3c3c3c;}</style><clipPath id="clip-path"><path class="cls-1" d="M33.43,23a9.9,9.9,0,1,1-3.51-4.9L28.69,19.4a8.08,8.08,0,1,0,3.26,5ZM20.66,24.4l3.29,3.51,9.47-11a.9.9,0,1,1,1.36,1.17L24,30.61l-4.66-5a.9.9,0,1,1,1.31-1.23ZM5,5H7V7H5ZM9,5H23V7H9ZM52,41h2v2H52ZM18,41h2v2H18Zm40.91,0H63V39H60V37h3V31.29L62.81,31H48a1,1,0,0,1-1-1V21a1,1,0,0,1,1-1h7.74l-1.29-2H45V41h2.09a6,6,0,0,1,11.82,0ZM53,46a4,4,0,1,0-4-4A4,4,0,0,0,53,46ZM19,36a6,6,0,0,1,5.91,5H43V39H26V37H43V15H9V13H43V11H7V37h5v2H7v2h6.09A6,6,0,0,1,19,36Zm0,10a4,4,0,1,0-4-4A4,4,0,0,0,19,46ZM57,22v0H49v7H61.53Zm-1.16-5.5,9,14A1,1,0,0,1,65,31V42a1,1,0,0,1-1,1H58.91a6,6,0,0,1-11.82,0H24.91a6,6,0,0,1-11.82,0H6a1,1,0,0,1-1-1V10A1,1,0,0,1,6,9H44a1,1,0,0,1,1,1v6H55A1,1,0,0,1,55.84,16.46Z"/></clipPath></defs><title>feature-icon3</title><g id="Layer_2" data-name="Layer 2"><g id="Layer_1-2" data-name="Layer 1"><g class="cls-2"><rect class="cls-3" width="70" height="53"/></g></g></g></svg>