<svg xmlns="http://www.w3.org/2000/svg" xmlns:xlink="http://www.w3.org/1999/xlink" viewBox="0 0 67.02 64.34"><defs><style>.cls-1{fill:none;}.cls-2{clip-path:url(#clip-path);}.cls-3{fill:#3c3c3c;}</style><clipPath id="clip-path"><path class="cls-1" d="M33.49,18,37,19.86,36.32,16l2.84-2.77-3.92-.57L33.49,9.07l-1.75,3.55-3.92.57L30.65,16,30,19.86Zm-5.9,5.13,1.13-6.57-4.77-4.65,6.59-1,2.95-6,2.95,6,6.59,1-4.77,4.65,1.13,6.57-5.9-3.1Zm19-1.27,1.84,1.89.38-2.61L51.22,20l-2.36-1.16-.38-2.61-1.84,1.89L44,17.67,45.27,20,44,22.33Zm-5.89,2.84L43.23,20l-2.48-4.72,5.26.9,3.72-3.82.77,5.28L55.28,20,50.5,22.36l-.77,5.28L46,23.82ZM55,31.05l.83,1.42L56.47,31l1.6-.35-1.25-1.06L57,27.92l-1.39.86-1.5-.66.39,1.59-1.09,1.22Zm1.11,5.47-2.19-3.75-4.33-.32,2.89-3.24-1-4.21,4,1.75,3.69-2.28-.43,4.32L62,31.59l-4.24.92ZM12,31.05l1.63-.12-1.09-1.22.39-1.59-1.5.66L10,27.92l.16,1.63L8.95,30.6l1.6.35.62,1.52Zm-1.11,5.47-1.64-4L5,31.59l3.31-2.8-.43-4.32,3.69,2.28,4-1.75-1,4.22,2.89,3.24-4.33.32ZM20,22l2.51.8-.89-2.48,1.54-2.14-2.63.08-1.56-2.12-.74,2.53-2.5.82L17.87,21v2.63ZM16.1,27.24l0-5.33-4.41-3,5.07-1.67,1.49-5.12,3.16,4.3,5.33-.16L23.6,20.58l1.8,5L20.32,24Zm-1.68,15V57.33h5V42.25Zm-1-2h7a1,1,0,0,1,1,1V58.34a1,1,0,0,1-1,1h-7a1,1,0,0,1-1-1V41.25a1,1,0,0,1,1-1Zm22-13.87a1.6,1.6,0,0,0-.58.05c-.26.09-.25.18-.25.28,0,3.54-.19,7-2.16,10-1.06,1.62-3.08,4.63-6.93,5.44V57.33H50.6c.66,0,1-.39,1-.67V55c0-.28-.35-.67-1-.67h-3a1,1,0,1,1,0-2h6c.66,0,1-.39,1-.67V50c0-.28-.34-.67-1-.67h-5a1,1,0,0,1,0-2h5c.66,0,1-.39,1-.67V44.94c0-.28-.34-.68-1-.68h-5a1,1,0,1,1,0-2h5c.66,0,1-.39,1-.67V39.9c0-.28-.34-.67-1-.67H39.55a1,1,0,0,1-1-1v-8a3.73,3.73,0,0,0-2.35-3.64A2.82,2.82,0,0,0,35.39,26.37Zm.13-2a4.77,4.77,0,0,1,1.38.31,5.68,5.68,0,0,1,3.65,5.53v7H53.62a2.86,2.86,0,0,1,3,2.68v1.68A2.43,2.43,0,0,1,56,43.26a2.4,2.4,0,0,1,.65,1.68v1.67A2.41,2.41,0,0,1,56,48.28,2.37,2.37,0,0,1,56.64,50v1.68a2.86,2.86,0,0,1-3,2.68h-.09a2.31,2.31,0,0,1,.09.66v1.68a2.87,2.87,0,0,1-3,2.68H24.46a1,1,0,0,1-1-1V41.25a1,1,0,0,1,.9-1c3-.31,4.78-2.27,6.3-4.58s1.89-5.53,1.89-9a2.21,2.21,0,0,1,1.62-2.19A3.72,3.72,0,0,1,35.52,24.35Z"/></clipPath></defs><title>feature-icon4</title><g id="Layer_2" data-name="Layer 2"><g id="Layer_1-2" data-name="Layer 1"><g class="cls-2"><rect class="cls-3" width="67.02" height="64.34"/></g></g></g></svg>