<svg xmlns="http://www.w3.org/2000/svg" xmlns:xlink="http://www.w3.org/1999/xlink" viewBox="0 0 68 68"><defs><style>.cls-1{fill:none;}.cls-2{clip-path:url(#clip-path);}.cls-3{fill:#3c3c3c;}</style><clipPath id="clip-path"><path class="cls-1" d="M24.65,38.68h1.87v1.87H24.65Zm30.87,0h1.87v1.87H55.52Zm1.81,3.92a10.21,10.21,0,0,1-2.59,5.77l-1.39-1.25a8.34,8.34,0,0,0,2.12-4.72ZM20.9,38.68h1.87v1.87H20.9Zm-6.73,7.86-1.49,1.13a10.19,10.19,0,0,1-2.07-6.18V38.68H19v1.87H12.48v.94A8.33,8.33,0,0,0,14.17,46.54Zm32,10.85a2.81,2.81,0,1,0-2.81-2.81A2.81,2.81,0,0,0,46.16,57.39Zm0-7.48a4.68,4.68,0,1,1-4.68,4.68A4.68,4.68,0,0,1,46.16,49.9ZM21.84,57.39A2.81,2.81,0,1,0,19,54.58,2.81,2.81,0,0,0,21.84,57.39Zm0-7.48a4.68,4.68,0,1,1-4.68,4.68A4.68,4.68,0,0,1,21.84,49.9ZM61.13,34V32.13a.94.94,0,0,0-.94-.93H7.81a.94.94,0,0,0-.94.93V34a.94.94,0,0,0,.94.94H60.19A.94.94,0,0,0,61.13,34Zm-1.87,7.48V36.81H8.74v4.68A12.17,12.17,0,0,0,14,51.5,8.41,8.41,0,0,1,30.2,53.65H37.8A8.41,8.41,0,0,1,54,51.5,12.18,12.18,0,0,0,59.26,41.48ZM46.16,61.13a6.55,6.55,0,1,0-6.55-6.55A6.56,6.56,0,0,0,46.16,61.13Zm-24.32,0a6.55,6.55,0,1,0-6.55-6.55A6.56,6.56,0,0,0,21.84,61.13ZM34,20a14,14,0,0,0-13.23,9.36h2a12.15,12.15,0,0,1,22.44,0h2A14,14,0,0,0,34,20Zm3.86-7-1.31-1.31a13.94,13.94,0,0,0-3.19,6.45l.64,0c.43,0,.85,0,1.27.05A12.12,12.12,0,0,1,37.86,13ZM59.2,21.84a12.08,12.08,0,0,1-3.36,7.48h2.46a13.8,13.8,0,0,0,2.78-7.48Zm-13-13.05V6.92a14,14,0,0,0-8.3,3.43l1.31,1.31A12.08,12.08,0,0,1,46.16,8.78ZM55,11.68l1.32-1.32A14,14,0,0,0,48,6.92V8.79A12.09,12.09,0,0,1,55,11.68ZM59.21,20h1.87a14,14,0,0,0-3.44-8.29L56.32,13A12.09,12.09,0,0,1,59.21,20Zm-10,9.36H53A10.28,10.28,0,1,0,37.12,18.42a15.87,15.87,0,0,1,7.17,3.47V14.36h1.87V12.48H48v1.87a3.73,3.73,0,0,1,2.45,6.55,3.71,3.71,0,0,1-2,6.5A15.82,15.82,0,0,1,49.19,29.32Zm-3-7.48v1.92a15.84,15.84,0,0,1,1.32,1.82H48a1.87,1.87,0,0,0,0-3.74ZM48,16.23H46.16V20H48a1.87,1.87,0,0,0,0-3.74ZM36.65,29.32l.93-2.1H33.18l-1.09,2.1Zm1.66,0h4.85a10.28,10.28,0,0,0-18.32,0h5.54l1.87-3.62h7.67Zm-13-8.66q.6-.39,1.24-.73l-1.2-1.79ZM21,24.92a24,24,0,0,1,1.83-2.18q.35-.35.9-.81l.06-3.56L19,25.43Zm-1.78,3.35q.26-.69.59-1.34l-1.24.32Zm-4.24,1.06h3l-1.21-1.9a.82.82,0,0,1-.33-.47v-.06l-.17-.27L23.83,15.3a.83.83,0,0,1,.24-.36l.57-.85,3.45,5.15a15.79,15.79,0,0,1,3.34-.93,16,16,0,0,1,.34-1.57A10.64,10.64,0,0,0,14.94,29.32Zm-4.17,0h2A12.57,12.57,0,0,1,32.45,14.74,15.82,15.82,0,0,1,33.31,13,14.46,14.46,0,0,0,10.77,29.32Zm-2.15,0a16.49,16.49,0,0,1,25.81-18A15.89,15.89,0,0,1,60.55,29.36,2.8,2.8,0,0,1,63,32.13V34a2.8,2.8,0,0,1-1.87,2.63v4.85a14.05,14.05,0,0,1-6.64,11.92A8.41,8.41,0,1,1,37.8,55.52H30.2a8.41,8.41,0,1,1-16.69-2.11A14,14,0,0,1,6.87,41.48V36.63A2.8,2.8,0,0,1,5,34V32.13a2.81,2.81,0,0,1,2.81-2.81Z"/></clipPath></defs><title>feature-icon1</title><g id="Layer_2" data-name="Layer 2"><g id="Layer_1-2" data-name="Layer 1"><g class="cls-2"><rect class="cls-3" width="68" height="68"/></g></g></g></svg>