<svg xmlns="http://www.w3.org/2000/svg" xmlns:xlink="http://www.w3.org/1999/xlink" viewBox="0 0 57.48 63.84"><defs><style>.cls-1{fill:none;}.cls-2{clip-path:url(#clip-path);}.cls-3{fill:#3c3c3c;}</style><clipPath id="clip-path"><path class="cls-1" d="M30.15,32.19h-3.5v3h3.5a1.5,1.5,0,0,0,0-3Zm0-5h-3.5v3h3.5a1.5,1.5,0,0,0,0-3ZM7.9,21l.87,3.39a1,1,0,0,1-2,.52L5,18.19,5.77,18a1,1,0,0,1,.44-.13l5.57-1.66a1.05,1.05,0,0,1,.6,2L9,19.2,14,22.13A1,1,0,1,1,13,24Zm41.69,0L44.5,24a1,1,0,1,1-1-1.82l5.08-2.93-3.43-1a1.05,1.05,0,0,1,.6-2l5.57,1.66a1,1,0,0,1,.44.13l.77.23-1.73,6.74a1,1,0,0,1-2-.52Zm0,21.61-.87-3.39a1.05,1.05,0,0,1,2-.52l1.73,6.74-.77.23a1.06,1.06,0,0,1-.44.13L45.7,47.47a1,1,0,0,1-.6-2l3.43-1-5.08-2.93a1.05,1.05,0,1,1,1-1.82Zm-41.69,0L13,39.69a1.05,1.05,0,1,1,1,1.82L9,44.44l3.43,1a1,1,0,1,1-.6,2L6.21,45.81a1.06,1.06,0,0,1-.44-.13L5,45.45l1.73-6.74a1.05,1.05,0,0,1,2,.52ZM27.65,54.92V49.05a1.05,1.05,0,0,1,2.1,0v5.86l2.6-2.46A1,1,0,1,1,33.79,54l-4.22,4a1.06,1.06,0,0,1-.33.32l-.59.55-5-4.87a1.05,1.05,0,0,1,1.47-1.5Zm0-46-2.5,2.45a1.05,1.05,0,0,1-1.47-1.5l5-4.87.59.55a1.06,1.06,0,0,1,.33.32l4.22,4a1.05,1.05,0,0,1-1.44,1.53l-2.6-2.46v5.86a1.05,1.05,0,0,1-2.1,0Zm1,34.68A12,12,0,1,0,16.75,31.66,11.95,11.95,0,0,0,28.7,43.61Zm0,2.1a14,14,0,1,1,14.05-14A14,14,0,0,1,28.7,45.71ZM29,37.19H28v1.72a1,1,0,1,1-2,0V37.19H24.65v-12H26V23.43a1,1,0,1,1,2,0v1.75h1V23.43a1,1,0,1,1,2,0v1.86a3.5,3.5,0,0,1,1.61,5.9A3.5,3.5,0,0,1,31,37.09v1.82a1,1,0,1,1-2,0Z"/></clipPath></defs><title>feature-icon6</title><g id="Layer_2" data-name="Layer 2"><g id="Layer_1-2" data-name="Layer 1"><g class="cls-2"><rect class="cls-3" width="57.48" height="63.84"/></g></g></g></svg>