<svg xmlns="http://www.w3.org/2000/svg" xmlns:xlink="http://www.w3.org/1999/xlink" viewBox="0 0 65 52.76"><defs><style>.cls-1{fill:none;}.cls-2{clip-path:url(#clip-path);}.cls-3{fill:#3c3c3c;}</style><clipPath id="clip-path"><path class="cls-1" d="M40.47,18.69a22,22,0,0,1-8.16-3.1,18.14,18.14,0,0,1-7.69,3.17c.09,5.93,2.82,11.59,7.94,14.6C37.86,30.49,40.43,24.86,40.47,18.69Zm-8.81-5.39.63-.43.64.42a19.77,19.77,0,0,0,8.79,3.28l1,.11,0,1C43,25.2,39.89,32.3,33,35.68l-.52.26L32,35.66c-6.59-3.55-9.9-10.71-9.63-18l0-1.09H23.5C25.75,16.57,28.48,15.49,31.65,13.31Zm-1.58,9.83,1.67,2L37.1,20l1.56,1.66-7.08,6.67-3.23-3.72ZM57.74,44v-1.5H7.26V44c0,.82.9,1.5,2,1.5h46.5C56.84,45.48,57.74,44.8,57.74,44ZM56.79,7.68V39.81a2.57,2.57,0,0,1-.07.41H60V44a4,4,0,0,1-4.25,3.77H9.25A4,4,0,0,1,5,44V40.22H7.83a2.57,2.57,0,0,1,0-.41V7.68A2.67,2.67,0,0,1,10.49,5H54.12A2.67,2.67,0,0,1,56.79,7.68ZM14,40.22H50.86V10.91H14Zm-2,0V10a1.1,1.1,0,0,1,1.1-1.1H51.76a1.1,1.1,0,0,1,1.1,1.1V40.22h1.26a.41.41,0,0,0,.41-.41V7.45A.41.41,0,0,0,54.12,7H10.49a.41.41,0,0,0-.41.41V39.81a.41.41,0,0,0,.41.41Z"/></clipPath></defs><title>feature-icon5</title><g id="Layer_2" data-name="Layer 2"><g id="Layer_1-2" data-name="Layer 1"><g class="cls-2"><rect class="cls-3" width="65" height="52.76"/></g></g></g></svg>