<svg xmlns="http://www.w3.org/2000/svg" xmlns:xlink="http://www.w3.org/1999/xlink" viewBox="0 0 68.9 64.02"><defs><style>.cls-1{fill:none;}.cls-2{clip-path:url(#clip-path);}.cls-3{fill:#3c3c3c;}</style><clipPath id="clip-path"><path class="cls-1" d="M56,57.12a2,2,0,1,0-2.05-2A2.05,2.05,0,0,0,56,57.12Zm4-33a2,2,0,1,0-2.05-2A2.05,2.05,0,0,0,60,24.12Zm-44,1a2,2,0,1,0-2-2A2.05,2.05,0,0,0,16,25.12Zm-5,14a2,2,0,1,0-2-2A2.05,2.05,0,0,0,11,39.12Zm-2,15a2,2,0,1,0-2-2A2.05,2.05,0,0,0,9,54.12Zm29.5-18a2.55,2.55,0,1,0-2.55-2.55A2.55,2.55,0,0,0,38.45,36.12Zm4-13.44V16.43a4.05,4.05,0,0,0-8.1,0v6.28a14.54,14.54,0,0,1,8.1,0Zm1.9.69a14.46,14.46,0,0,1,3.1,1.89V16a9,9,0,0,0-18.1,0v9.39a14.51,14.51,0,0,1,3.1-1.92v-7a5.95,5.95,0,0,1,11.9,0Zm-5,14.55,0,5.5a1,1,0,0,1-1.9,0l0-5.53a4.45,4.45,0,1,1,1.9,0Zm1.54,11,.22-.12,0,.07a12.55,12.55,0,1,0-12-20.73.94.94,0,0,1-.17.19A12.55,12.55,0,0,0,40.9,48.88Zm11.2,7H42.83l-2.71-5a14.47,14.47,0,0,1-10.9-3.23l-5.16,4.9H12.87a3.95,3.95,0,1,1-.21-1.9H23.31l4.54-4.3A14.39,14.39,0,0,1,24,37.52H14.87a3.95,3.95,0,1,1-.25-1.9H24a14.39,14.39,0,0,1,.55-3.11L18,26.43a3.95,3.95,0,1,1,1.33-1.36l5.94,5.51a14.46,14.46,0,0,1,2.16-3.38V16a11,11,0,0,1,21.9,0V27.07h0a14.39,14.39,0,0,1,3.53,8.77l6.27-3.17V25.94a3.95,3.95,0,1,1,1.9-.07v8L52.91,38l-.08,0A14.46,14.46,0,0,1,42.09,50.55L44,54h8.18a4,4,0,1,1,0,1.9Z"/></clipPath></defs><title>feature-icon2</title><g id="Layer_2" data-name="Layer 2"><g id="Layer_1-2" data-name="Layer 1"><g class="cls-2"><rect class="cls-3" width="68.9" height="64.02"/></g></g></g></svg>