<svg xmlns="http://www.w3.org/2000/svg" width="26" height="21" viewBox="0 0 26 21"><defs><clipPath id="sgy4a"><path d="M10.552 1.452L.68 16.341A3 3 0 0 0 3.181 21h19.745a3.001 3.001 0 0 0 2.5-4.659L15.554 1.452a3.008 3.008 0 0 0-.843-.843 3 3 0 0 0-4.159.843z"/></clipPath><clipPath id="sgy4b"><path d="M11.5 16.504c0 .413.147.766.44 1.058.294.292.649.438 1.064.438.41 0 .761-.146 1.056-.438a1.45 1.45 0 0 0 .44-1.066 1.45 1.45 0 0 0-.436-1.054c-.291-.295-.668-.442-1.131-.442-.35 0-.676.145-.979.434a1.42 1.42 0 0 0-.454 1.07zM11.5 5l.393 9h2.232l.375-9z"/></clipPath></defs><g><g/><g clip-path="url(#sgy4a)"><path fill="#ffc355" d="M-4.819-4.891h35.744V26H-4.819z"/></g><g/><g clip-path="url(#sgy4b)"><path fill="#3c3c3c" d="M6.5 0h13v23h-13z"/></g></g></svg>