<svg xmlns="http://www.w3.org/2000/svg" xmlns:xlink="http://www.w3.org/1999/xlink" viewBox="0 0 51 34"><defs><style>.cls-1{fill:none;}.cls-2{clip-path:url(#clip-path);}.cls-3{clip-path:url(#clip-path-2);}.cls-4{fill:#ffb501;}.cls-5{clip-path:url(#clip-path-3);}.cls-6{clip-path:url(#clip-path-5);}.cls-7{clip-path:url(#clip-path-7);}.cls-8{clip-path:url(#clip-path-9);}.cls-9{fill:#fff;}</style><clipPath id="clip-path" transform="translate(-258 -557)"><path class="cls-1" d="M289.74,564.57h7.15a1.57,1.57,0,0,1,0,3.14h-7.15a1.57,1.57,0,0,1,0-3.14Z"/></clipPath><clipPath id="clip-path-2" transform="translate(-258 -557)"><rect class="cls-1" width="1440" height="2810"/></clipPath><clipPath id="clip-path-3" transform="translate(-258 -557)"><path class="cls-1" d="M292.9,572.43h9.52a1.57,1.57,0,1,1,0,3.14H292.9a1.57,1.57,0,1,1,0-3.14Z"/></clipPath><clipPath id="clip-path-5" transform="translate(-258 -557)"><path class="cls-1" d="M290.53,580.29h7.15a1.57,1.57,0,0,1,0,3.14h-7.15a1.57,1.57,0,0,1,0-3.14Z"/></clipPath><clipPath id="clip-path-7" transform="translate(-258 -557)"><circle class="cls-1" cx="275" cy="574" r="12"/></clipPath><clipPath id="clip-path-9" transform="translate(-258 -557)"><path class="cls-1" d="M274.06,574.75v3.75c2.87,0,4.83-.28,4.83-1.89S276.76,574.75,274.06,574.75Zm0-1.5c1.6,0,4-.12,4-1.87,0-1.5-1.5-1.87-4-1.87Zm7.94,3.14c0,2.61-1.94,4.36-5.78,4.36V583h-1.44v-2.27h-.72V583h-1.44v-2.27H269l.36-2.23h.78c.64,0,1-.64,1-1.28v-6.67a1,1,0,0,0-1-1.05H269v-2.25h3.61V565h1.44v2.25h.72V565h1.44v2.29c3.12.11,4.35,1.34,4.7,2.72a2.88,2.88,0,0,1-1.51,3.34A3.15,3.15,0,0,1,282,576.39Z"/></clipPath></defs><title>Asset 5</title><g id="Layer_2" data-name="Layer 2"><g id="Layer_1-2" data-name="Layer 1"><g class="cls-2"><g class="cls-3"><rect class="cls-4" x="25.17" y="2.57" width="20.29" height="13.14"/></g></g><g class="cls-5"><g class="cls-3"><rect class="cls-4" x="28.33" y="10.43" width="22.67" height="13.14"/></g></g><g class="cls-6"><g class="cls-3"><rect class="cls-4" x="25.96" y="18.29" width="20.29" height="13.14"/></g></g><g class="cls-7"><g class="cls-3"><rect class="cls-4" width="34" height="34"/></g></g><g class="cls-8"><g class="cls-3"><rect class="cls-9" x="6" y="3" width="23" height="28"/></g></g></g></g></svg>