<svg xmlns="http://www.w3.org/2000/svg" xmlns:xlink="http://www.w3.org/1999/xlink" viewBox="0 0 38 38"><defs><style>.cls-1{fill:none;}.cls-2{clip-path:url(#clip-path);}.cls-3{clip-path:url(#clip-path-2);}.cls-4{fill:#fff;}</style><clipPath id="clip-path" transform="translate(-1228 -14)"><path class="cls-1" d="M1255.4,41.4a2.8,2.8,0,1,0,2.8,2.8A2.81,2.81,0,0,0,1255.4,41.4ZM1233,19v2.8h2.8l5,10.64-2,3.36a5,5,0,0,0-.28,1.4,2.81,2.81,0,0,0,2.8,2.8h16.8V37.2H1242a.3.3,0,0,1-.28-.28v-.14l1.26-2.38h10.36a2.55,2.55,0,0,0,2.38-1.4l5-9.1a.77.77,0,0,0,.28-.7,1.32,1.32,0,0,0-1.4-1.4h-20.72l-1.26-2.8Zm8.4,22.4a2.8,2.8,0,1,0,2.8,2.8A2.81,2.81,0,0,0,1241.4,41.4Z"/></clipPath><clipPath id="clip-path-2" transform="translate(-1228 -14)"><rect class="cls-1" width="1440" height="2856"/></clipPath></defs><title>Asset 1</title><g id="Layer_2" data-name="Layer 2"><g id="Layer_1-2" data-name="Layer 1"><g class="cls-2"><g class="cls-3"><rect class="cls-4" width="38" height="38"/></g></g></g></g></svg>