<svg xmlns="http://www.w3.org/2000/svg" xmlns:xlink="http://www.w3.org/1999/xlink" viewBox="0 0 54.56 39.26"><defs><style>.cls-1{fill:none;}.cls-2{clip-path:url(#clip-path);}.cls-3{clip-path:url(#clip-path-2);}.cls-4{fill:#2bb7bd;}</style><clipPath id="clip-path" transform="translate(-693.51 -417.74)"><path class="cls-1" d="M721.5,425.74H718a8,8,0,0,0-8,8v1.5h-1.66a6.89,6.89,0,1,0,0,13.77h26.25a5.42,5.42,0,1,0,0-10.84h-4.21v-3.49A8.93,8.93,0,0,0,721.5,425.74Zm-23,16.37a9.89,9.89,0,0,1,8.64-9.81,11,11,0,0,1,10.9-9.56h3.46a11.93,11.93,0,0,1,11.93,11.93v.49h1.21a8.42,8.42,0,1,1,0,16.84H708.39A9.89,9.89,0,0,1,698.51,442.11Zm23.3-7.2v9a1.5,1.5,0,0,1-3,0V435L717,436.61a1.3,1.3,0,0,1-1.71-1.95l5.16-4.54,5,4.56a1.3,1.3,0,0,1-1.75,1.91Z"/></clipPath><clipPath id="clip-path-2" transform="translate(-693.51 -417.74)"><rect class="cls-1" width="1440" height="1762"/></clipPath></defs><title>Asset 2</title><g id="Layer_2" data-name="Layer 2"><g id="Layer_1-2" data-name="Layer 1"><g class="cls-2"><g class="cls-3"><rect class="cls-4" width="54.56" height="39.26"/></g></g></g></g></svg>