<svg xmlns="http://www.w3.org/2000/svg" xmlns:xlink="http://www.w3.org/1999/xlink" viewBox="0 0 305 253"><defs><style>.cls-1,.cls-2,.cls-37,.cls-38{fill:none;}.cls-2{clip-rule:evenodd;}.cls-3{clip-path:url(#clip-path);}.cls-4{fill:#3c3c3c;}.cls-5{clip-path:url(#clip-path-2);}.cls-6{fill:#2bb7bd;}.cls-7{clip-path:url(#clip-path-3);}.cls-8{clip-path:url(#clip-path-4);}.cls-9{clip-path:url(#clip-path-5);}.cls-10{clip-path:url(#clip-path-6);}.cls-11{clip-path:url(#clip-path-7);}.cls-12{clip-path:url(#clip-path-8);}.cls-13{clip-path:url(#clip-path-9);}.cls-14{clip-path:url(#clip-path-10);}.cls-15{clip-path:url(#clip-path-11);}.cls-16{clip-path:url(#clip-path-12);}.cls-17{clip-path:url(#clip-path-13);}.cls-18{clip-path:url(#clip-path-14);}.cls-19{clip-path:url(#clip-path-15);}.cls-20{clip-path:url(#clip-path-16);}.cls-21{clip-path:url(#clip-path-17);}.cls-22{clip-path:url(#clip-path-18);}.cls-23{clip-path:url(#clip-path-19);}.cls-24{clip-path:url(#clip-path-20);}.cls-25{clip-path:url(#clip-path-21);}.cls-26{clip-path:url(#clip-path-22);}.cls-27{clip-path:url(#clip-path-23);}.cls-28{clip-path:url(#clip-path-24);}.cls-29{clip-path:url(#clip-path-25);}.cls-30{clip-path:url(#clip-path-26);}.cls-31{clip-path:url(#clip-path-27);}.cls-32{clip-path:url(#clip-path-28);}.cls-33{clip-path:url(#clip-path-29);}.cls-34{clip-path:url(#clip-path-30);}.cls-35{clip-path:url(#clip-path-31);}.cls-36{clip-path:url(#clip-path-32);}.cls-37,.cls-38{stroke:#3c3c3c;stroke-linecap:round;stroke-miterlimit:10;stroke-width:2px;}.cls-38{stroke-dasharray:1 5;}</style><clipPath id="clip-path"><path class="cls-1" d="M16,171v26H62V171Zm-2-2H64v30H14Zm20,34H33v5h1Zm11,7H21v3H58v-3H45Zm2-9H66V167H12v34H47Zm0,2v5H58.9a1.1,1.1,0,0,1,1.1,1.1v4.8a1.1,1.1,0,0,1-1.1,1.1H20.1a1.1,1.1,0,0,1-1.1-1.1v-4.8a1.1,1.1,0,0,1,1.1-1.1H31v-5H12a2,2,0,0,1-2-2V167a2,2,0,0,1,2-2H66a2,2,0,0,1,2,2v34a2,2,0,0,1-2,2Zm-2,0H36v5h9Z"/></clipPath><clipPath id="clip-path-2"><path class="cls-2" d="M32.73,178.18a.57.57,0,0,0,1,.1c.31-.3.37-.81,0-.94C33.43,177.27,32.28,177.26,32.73,178.18Zm2.9-3.42c1.11-.85,1.44-.78,1.7-.75s.29.33.12.86-.66,1.57-1,2.48c-.9,2.5.62,4.16,2.6,5.24a18.09,18.09,0,0,1,4.39,2.93c1.06,1.06,1.1,2,1.38,2.26s.79.59.45-1.65a4.78,4.78,0,0,0-2.73-3.69,16.61,16.61,0,0,0-2.77-.85c-4-1.44.32-8.06,6.58-5.33,6,2.6,6.63,13.15-.68,14a4.88,4.88,0,0,1-2.34,2.58c-1.47.73-2.58.48-4.19.53-1.37,0-2.5-.15-2.41-.84.13-.94,2.34-.36,2.35-2.37,0-1.15-1.21-1.83-1.86-.62a7.32,7.32,0,0,1-1.11,1.73c-1.19,1.4-2.76,3.21-4.26,2.6-.36-.15-.51-.56.09-1.09.26-.23.51-.41.77-.68a5.37,5.37,0,0,0,.89-2.35v0a3.85,3.85,0,0,1-1.75,2.08c-.75.5-1.25.12-.84-.43a13.54,13.54,0,0,0,2-4c.13-.38.25-.61.37-.61l-.07-.35c-.7-3.31-1.2-4.29-1.78-4.88-.42-.44-3.12-2.81-2.44-3.74a6.29,6.29,0,0,1,4-2.19l1-.12v0a9.9,9.9,0,0,1,1-1.18c.22-.27.7-.23.62,0S35.67,174.63,35.64,174.77Z"/></clipPath><clipPath id="clip-path-3"><path class="cls-1" d="M82,204v26h46V204Zm-2-2h50v30H80Zm20,34H99v5h1Zm11,7H87v3h37v-3H111Zm2-9h19V200H78v34h35Zm0,2v5H124.9a1.1,1.1,0,0,1,1.1,1.1v4.8a1.1,1.1,0,0,1-1.1,1.1H86.1a1.1,1.1,0,0,1-1.1-1.1v-4.8a1.1,1.1,0,0,1,1.1-1.1H97v-5H78a2,2,0,0,1-2-2V200a2,2,0,0,1,2-2h54a2,2,0,0,1,2,2v34a2,2,0,0,1-2,2Zm-2,0h-9v5h9Z"/></clipPath><clipPath id="clip-path-4"><path class="cls-2" d="M98.73,211.18a.57.57,0,0,0,1,.1c.31-.3.37-.81,0-.94C99.44,210.27,98.28,210.26,98.73,211.18Zm2.9-3.42c1.11-.85,1.44-.78,1.7-.75s.29.33.12.86-.66,1.57-1,2.48c-.9,2.5.62,4.16,2.6,5.24a18.07,18.07,0,0,1,4.39,2.93c1.06,1.06,1.1,2,1.38,2.26s.79.59.45-1.65a4.78,4.78,0,0,0-2.72-3.69,16.6,16.6,0,0,0-2.77-.85c-4-1.44.31-8.06,6.58-5.33,6,2.6,6.63,13.15-.67,14a4.88,4.88,0,0,1-2.34,2.58c-1.47.73-2.58.48-4.19.53-1.37,0-2.5-.15-2.41-.84.13-.94,2.34-.36,2.35-2.37,0-1.15-1.21-1.83-1.86-.62a7.34,7.34,0,0,1-1.11,1.73c-1.19,1.4-2.77,3.21-4.26,2.6-.36-.15-.51-.56.09-1.09.26-.23.52-.41.77-.68a5.36,5.36,0,0,0,.89-2.35v0a3.85,3.85,0,0,1-1.75,2.08c-.75.5-1.25.12-.84-.43a13.54,13.54,0,0,0,2-4c.13-.38.25-.61.37-.61l-.07-.35c-.7-3.31-1.2-4.29-1.78-4.88-.42-.44-3.12-2.81-2.44-3.74a6.28,6.28,0,0,1,4-2.19l1-.12v0a10,10,0,0,1,1-1.18c.22-.27.7-.23.62,0S101.67,207.63,101.64,207.77Z"/></clipPath><clipPath id="clip-path-5"><path class="cls-1" d="M163,204v26h46V204Zm-2-2h50v30H161Zm20,34h-1v5h1Zm11,7H168v3h37v-3H192Zm2-9h19V200H159v34h35Zm0,2v5H205.9a1.1,1.1,0,0,1,1.1,1.1v4.8a1.1,1.1,0,0,1-1.1,1.1H167.1a1.1,1.1,0,0,1-1.1-1.1v-4.8a1.1,1.1,0,0,1,1.1-1.1H178v-5H159a2,2,0,0,1-2-2V200a2,2,0,0,1,2-2h54a2,2,0,0,1,2,2v34a2,2,0,0,1-2,2Zm-2,0h-9v5h9Z"/></clipPath><clipPath id="clip-path-6"><path class="cls-2" d="M179.73,211.18a.57.57,0,0,0,1,.1c.31-.3.37-.81,0-.94C180.44,210.27,179.28,210.26,179.73,211.18Zm2.9-3.42c1.11-.85,1.44-.78,1.71-.75s.29.33.12.86-.66,1.57-1,2.48c-.9,2.5.62,4.16,2.6,5.24a18.07,18.07,0,0,1,4.39,2.93c1.06,1.06,1.1,2,1.38,2.26s.79.59.44-1.65a4.78,4.78,0,0,0-2.72-3.69,16.6,16.6,0,0,0-2.77-.85c-4-1.44.31-8.06,6.58-5.33,6,2.6,6.63,13.15-.67,14a4.88,4.88,0,0,1-2.34,2.58c-1.47.73-2.58.48-4.19.53-1.37,0-2.5-.15-2.41-.84.13-.94,2.34-.36,2.35-2.37,0-1.15-1.21-1.83-1.86-.62a7.34,7.34,0,0,1-1.11,1.73c-1.19,1.4-2.76,3.21-4.26,2.6-.36-.15-.51-.56.09-1.09.26-.23.51-.41.77-.68a5.36,5.36,0,0,0,.89-2.35v0a3.85,3.85,0,0,1-1.75,2.08c-.75.5-1.25.12-.84-.43a13.54,13.54,0,0,0,2-4c.13-.38.25-.61.37-.61l-.07-.35c-.7-3.31-1.2-4.29-1.78-4.88-.42-.44-3.12-2.81-2.44-3.74a6.28,6.28,0,0,1,4-2.19l1-.12v0a10,10,0,0,1,1-1.18c.22-.27.7-.23.62,0S182.67,207.63,182.64,207.77Z"/></clipPath><clipPath id="clip-path-7"><path class="cls-1" d="M229,171v26h46V171Zm-2-2h50v30H227Zm20,34h-1v5h1Zm11,7H234v3h37v-3H258Zm2-9h19V167H225v34h35Zm0,2v5H271.9a1.1,1.1,0,0,1,1.1,1.1v4.8a1.1,1.1,0,0,1-1.1,1.1H233.1a1.1,1.1,0,0,1-1.1-1.1v-4.8a1.1,1.1,0,0,1,1.1-1.1H244v-5H225a2,2,0,0,1-2-2V167a2,2,0,0,1,2-2h54a2,2,0,0,1,2,2v34a2,2,0,0,1-2,2Zm-2,0h-9v5h9Z"/></clipPath><clipPath id="clip-path-8"><path class="cls-2" d="M245.73,178.18a.57.57,0,0,0,1,.1c.31-.3.37-.81,0-.94C246.44,177.27,245.28,177.26,245.73,178.18Zm2.9-3.42c1.11-.85,1.44-.78,1.71-.75s.29.33.12.86-.66,1.57-1,2.48c-.9,2.5.62,4.16,2.6,5.24a18.07,18.07,0,0,1,4.39,2.93c1.06,1.06,1.1,2,1.38,2.26s.79.59.44-1.65a4.78,4.78,0,0,0-2.72-3.69,16.6,16.6,0,0,0-2.77-.85c-4-1.44.31-8.06,6.58-5.33,6,2.6,6.63,13.15-.67,14a4.88,4.88,0,0,1-2.34,2.58c-1.47.73-2.58.48-4.19.53-1.37,0-2.5-.15-2.41-.84.13-.94,2.34-.36,2.35-2.37,0-1.15-1.21-1.83-1.86-.62a7.34,7.34,0,0,1-1.11,1.73c-1.19,1.4-2.76,3.21-4.26,2.6-.36-.15-.51-.56.09-1.09.26-.23.51-.41.77-.68a5.36,5.36,0,0,0,.89-2.35v0a3.85,3.85,0,0,1-1.75,2.08c-.75.5-1.25.12-.84-.43a13.54,13.54,0,0,0,2-4c.13-.38.25-.61.37-.61l-.07-.35c-.7-3.31-1.2-4.29-1.78-4.88-.42-.44-3.12-2.81-2.44-3.74a6.28,6.28,0,0,1,4-2.19l1-.12v0a10,10,0,0,1,1-1.18c.22-.27.7-.23.62,0S248.67,174.63,248.64,174.77Z"/></clipPath><clipPath id="clip-path-9"><path class="cls-1" d="M30.5,109.13a12.25,12.25,0,0,0,2.23,1.37A24.19,24.19,0,0,0,43,112.56a24.19,24.19,0,0,0,10.27-2.06,12.25,12.25,0,0,0,2.23-1.37v3c0,1.14-1.06,2.46-3.32,3.55A22,22,0,0,1,43,117.52a22,22,0,0,1-9.18-1.82c-2.26-1.09-3.32-2.41-3.32-3.55Zm0-7.44a12.24,12.24,0,0,0,2.23,1.37A24.18,24.18,0,0,0,43,105.13a24.18,24.18,0,0,0,10.27-2.07,12.24,12.24,0,0,0,2.23-1.37v3c0,1.14-1.06,2.46-3.32,3.55A22,22,0,0,1,43,110.09a22,22,0,0,1-9.18-1.82c-2.26-1.09-3.32-2.41-3.32-3.55Zm0-7.41a12.29,12.29,0,0,0,2.23,1.34A24.19,24.19,0,0,0,43,97.7a24.18,24.18,0,0,0,10.27-2.07,12.29,12.29,0,0,0,2.23-1.34v3c0,1.13-1.06,2.46-3.32,3.55A22,22,0,0,1,43,102.65a22,22,0,0,1-9.18-1.82c-2.26-1.09-3.32-2.41-3.32-3.55ZM43,84.48a22,22,0,0,1,9.18,1.81c2.26,1.09,3.32,2.43,3.32,3.56s-1.06,2.46-3.32,3.55A22,22,0,0,1,43,95.22a22,22,0,0,1-9.18-1.82C31.56,92.31,30.5,91,30.5,89.85s1.06-2.47,3.32-3.56A22,22,0,0,1,43,84.48ZM43,82a24.19,24.19,0,0,0-10.27,2.05C30,85.36,28,87.33,28,89.85v22.3c0,2.52,2,4.48,4.73,5.78A24.19,24.19,0,0,0,43,120a24.19,24.19,0,0,0,10.27-2.06c2.71-1.3,4.73-3.27,4.73-5.78V89.85c0-2.52-2-4.49-4.73-5.8A24.19,24.19,0,0,0,43,82Z"/></clipPath><clipPath id="clip-path-10"><ellipse class="cls-1" cx="52.09" cy="98.47" rx="1.36" ry="1.36"/></clipPath><clipPath id="clip-path-11"><ellipse class="cls-1" cx="52.09" cy="113.49" rx="1.36" ry="1.36"/></clipPath><clipPath id="clip-path-12"><ellipse class="cls-1" cx="52.09" cy="105.7" rx="1.36" ry="1.36"/></clipPath><clipPath id="clip-path-13"><path class="cls-1" d="M106.5,102.13a12.23,12.23,0,0,0,2.23,1.37,26.59,26.59,0,0,0,20.55,0,12.23,12.23,0,0,0,2.23-1.37v3c0,1.14-1.06,2.46-3.32,3.55a24.06,24.06,0,0,1-18.36,0c-2.26-1.09-3.32-2.41-3.32-3.55Zm0-7.44a12.23,12.23,0,0,0,2.23,1.37,26.58,26.58,0,0,0,20.55,0,12.22,12.22,0,0,0,2.23-1.37v3c0,1.14-1.06,2.46-3.32,3.55a24.06,24.06,0,0,1-18.36,0c-2.26-1.09-3.32-2.41-3.32-3.55Zm0-7.41a12.29,12.29,0,0,0,2.23,1.34,26.57,26.57,0,0,0,20.55,0,12.28,12.28,0,0,0,2.23-1.34v3c0,1.13-1.06,2.46-3.32,3.55a24.06,24.06,0,0,1-18.36,0c-2.26-1.09-3.32-2.41-3.32-3.55ZM119,77.48a22,22,0,0,1,9.18,1.81c2.26,1.09,3.32,2.43,3.32,3.56s-1.06,2.46-3.32,3.55a24.06,24.06,0,0,1-18.36,0c-2.26-1.09-3.32-2.41-3.32-3.55s1.06-2.47,3.32-3.56A22,22,0,0,1,119,77.48ZM119,75a24.19,24.19,0,0,0-10.27,2.05c-2.71,1.3-4.73,3.28-4.73,5.8v22.3c0,2.52,2,4.48,4.73,5.78a26.59,26.59,0,0,0,20.55,0c2.71-1.3,4.73-3.27,4.73-5.78V82.85c0-2.52-2-4.49-4.73-5.8A24.18,24.18,0,0,0,119,75Z"/></clipPath><clipPath id="clip-path-14"><ellipse class="cls-1" cx="128.09" cy="91.47" rx="1.36" ry="1.36"/></clipPath><clipPath id="clip-path-15"><ellipse class="cls-1" cx="128.09" cy="106.49" rx="1.36" ry="1.36"/></clipPath><clipPath id="clip-path-16"><ellipse class="cls-1" cx="128.09" cy="98.7" rx="1.36" ry="1.36"/></clipPath><clipPath id="clip-path-17"><path class="cls-1" d="M163.5,74.13a12.23,12.23,0,0,0,2.23,1.37,26.59,26.59,0,0,0,20.55,0,12.23,12.23,0,0,0,2.23-1.37v3c0,1.14-1.06,2.46-3.32,3.55a24.06,24.06,0,0,1-18.36,0c-2.26-1.09-3.32-2.41-3.32-3.55Zm0-7.44a12.22,12.22,0,0,0,2.23,1.37,26.58,26.58,0,0,0,20.55,0,12.22,12.22,0,0,0,2.23-1.37v3c0,1.14-1.06,2.46-3.32,3.55a24.06,24.06,0,0,1-18.36,0c-2.26-1.09-3.32-2.41-3.32-3.55Zm0-7.41a12.28,12.28,0,0,0,2.23,1.34,26.57,26.57,0,0,0,20.55,0,12.28,12.28,0,0,0,2.23-1.34v3c0,1.13-1.06,2.46-3.32,3.55a24.06,24.06,0,0,1-18.36,0c-2.26-1.09-3.32-2.41-3.32-3.55ZM176,49.48a22,22,0,0,1,9.18,1.81c2.26,1.09,3.32,2.43,3.32,3.56s-1.06,2.46-3.32,3.55a24.06,24.06,0,0,1-18.36,0c-2.26-1.09-3.32-2.41-3.32-3.55s1.06-2.48,3.32-3.56A22,22,0,0,1,176,49.48ZM176,47a24.18,24.18,0,0,0-10.27,2.05c-2.71,1.3-4.73,3.28-4.73,5.8v22.3c0,2.52,2,4.48,4.73,5.78a26.59,26.59,0,0,0,20.55,0c2.71-1.3,4.73-3.27,4.73-5.78V54.85c0-2.52-2-4.49-4.73-5.8A24.18,24.18,0,0,0,176,47Z"/></clipPath><clipPath id="clip-path-18"><ellipse class="cls-1" cx="185.09" cy="63.47" rx="1.36" ry="1.36"/></clipPath><clipPath id="clip-path-19"><ellipse class="cls-1" cx="185.09" cy="78.49" rx="1.36" ry="1.36"/></clipPath><clipPath id="clip-path-20"><ellipse class="cls-1" cx="185.09" cy="70.7" rx="1.36" ry="1.36"/></clipPath><clipPath id="clip-path-21"><path class="cls-1" d="M102.5,41.13a12.23,12.23,0,0,0,2.23,1.37,26.59,26.59,0,0,0,20.55,0,12.23,12.23,0,0,0,2.23-1.37v3c0,1.13-1.06,2.46-3.32,3.55a24.06,24.06,0,0,1-18.36,0c-2.26-1.09-3.32-2.41-3.32-3.55Zm0-7.43a12.23,12.23,0,0,0,2.23,1.37,26.58,26.58,0,0,0,20.55,0,12.22,12.22,0,0,0,2.23-1.37v3c0,1.14-1.06,2.46-3.32,3.55a24.06,24.06,0,0,1-18.36,0c-2.26-1.09-3.32-2.41-3.32-3.55Zm0-7.41a12.29,12.29,0,0,0,2.23,1.34,26.57,26.57,0,0,0,20.55,0,12.29,12.29,0,0,0,2.23-1.34v3c0,1.13-1.06,2.46-3.32,3.55a24.06,24.06,0,0,1-18.36,0c-2.26-1.09-3.32-2.41-3.32-3.55ZM115,16.48a22,22,0,0,1,9.18,1.81c2.26,1.09,3.32,2.43,3.32,3.56s-1.06,2.46-3.32,3.55a24.06,24.06,0,0,1-18.36,0c-2.26-1.09-3.32-2.42-3.32-3.55s1.06-2.47,3.32-3.56A22,22,0,0,1,115,16.48ZM115,14a24.19,24.19,0,0,0-10.27,2.05c-2.71,1.3-4.73,3.28-4.73,5.8v22.3c0,2.52,2,4.48,4.73,5.78a26.59,26.59,0,0,0,20.55,0c2.71-1.3,4.73-3.27,4.73-5.78V21.85c0-2.52-2-4.49-4.73-5.8A24.18,24.18,0,0,0,115,14Z"/></clipPath><clipPath id="clip-path-22"><ellipse class="cls-1" cx="124.09" cy="30.47" rx="1.36" ry="1.36"/></clipPath><clipPath id="clip-path-23"><ellipse class="cls-1" cx="124.09" cy="45.49" rx="1.36" ry="1.36"/></clipPath><clipPath id="clip-path-24"><ellipse class="cls-1" cx="124.09" cy="37.7" rx="1.36" ry="1.36"/></clipPath><clipPath id="clip-path-25"><path class="cls-1" d="M178.5,128.13a12.23,12.23,0,0,0,2.23,1.37,26.59,26.59,0,0,0,20.55,0,12.23,12.23,0,0,0,2.23-1.37v3c0,1.14-1.06,2.46-3.32,3.55a24.06,24.06,0,0,1-18.36,0c-2.26-1.09-3.32-2.41-3.32-3.55Zm0-7.44a12.22,12.22,0,0,0,2.23,1.37,26.58,26.58,0,0,0,20.55,0,12.22,12.22,0,0,0,2.23-1.37v3c0,1.14-1.06,2.46-3.32,3.55a24.06,24.06,0,0,1-18.36,0c-2.26-1.09-3.32-2.41-3.32-3.55Zm0-7.41a12.28,12.28,0,0,0,2.23,1.34,26.57,26.57,0,0,0,20.55,0,12.28,12.28,0,0,0,2.23-1.34v3c0,1.13-1.06,2.46-3.32,3.55a24.06,24.06,0,0,1-18.36,0c-2.26-1.09-3.32-2.41-3.32-3.55Zm12.5-9.81a22,22,0,0,1,9.18,1.81c2.26,1.09,3.32,2.43,3.32,3.56s-1.06,2.46-3.32,3.55a24.06,24.06,0,0,1-18.36,0c-2.26-1.09-3.32-2.41-3.32-3.55s1.06-2.47,3.32-3.56A22,22,0,0,1,191,103.48Zm0-2.48a24.18,24.18,0,0,0-10.27,2.05c-2.71,1.3-4.73,3.28-4.73,5.8v22.3c0,2.52,2,4.48,4.73,5.78a26.59,26.59,0,0,0,20.55,0c2.71-1.3,4.73-3.27,4.73-5.78v-22.3c0-2.52-2-4.49-4.73-5.8A24.18,24.18,0,0,0,191,101Z"/></clipPath><clipPath id="clip-path-26"><ellipse class="cls-1" cx="200.09" cy="117.47" rx="1.36" ry="1.36"/></clipPath><clipPath id="clip-path-27"><ellipse class="cls-1" cx="200.09" cy="132.49" rx="1.36" ry="1.36"/></clipPath><clipPath id="clip-path-28"><ellipse class="cls-1" cx="200.09" cy="124.7" rx="1.36" ry="1.36"/></clipPath><clipPath id="clip-path-29"><path class="cls-1" d="M230.5,86.13a12.23,12.23,0,0,0,2.23,1.37,26.59,26.59,0,0,0,20.55,0,12.23,12.23,0,0,0,2.23-1.37v3c0,1.14-1.06,2.46-3.32,3.55a24.06,24.06,0,0,1-18.36,0c-2.26-1.09-3.32-2.41-3.32-3.55Zm0-7.44a12.22,12.22,0,0,0,2.23,1.37,26.58,26.58,0,0,0,20.55,0,12.22,12.22,0,0,0,2.23-1.37v3c0,1.14-1.06,2.46-3.32,3.55a24.06,24.06,0,0,1-18.36,0c-2.26-1.09-3.32-2.41-3.32-3.55Zm0-7.41a12.28,12.28,0,0,0,2.23,1.34,26.57,26.57,0,0,0,20.55,0,12.28,12.28,0,0,0,2.23-1.34v3c0,1.13-1.06,2.46-3.32,3.55a24.06,24.06,0,0,1-18.36,0c-2.26-1.09-3.32-2.41-3.32-3.55ZM243,61.48a22,22,0,0,1,9.18,1.81c2.26,1.09,3.32,2.43,3.32,3.56s-1.06,2.46-3.32,3.55a24.06,24.06,0,0,1-18.36,0c-2.26-1.09-3.32-2.41-3.32-3.55s1.06-2.47,3.32-3.56A22,22,0,0,1,243,61.48ZM243,59a24.18,24.18,0,0,0-10.27,2.05c-2.71,1.3-4.73,3.28-4.73,5.8v22.3c0,2.52,2,4.48,4.73,5.78a26.59,26.59,0,0,0,20.55,0c2.71-1.3,4.73-3.27,4.73-5.78V66.85c0-2.52-2-4.49-4.73-5.8A24.18,24.18,0,0,0,243,59Z"/></clipPath><clipPath id="clip-path-30"><ellipse class="cls-1" cx="252.09" cy="75.47" rx="1.36" ry="1.36"/></clipPath><clipPath id="clip-path-31"><ellipse class="cls-1" cx="252.09" cy="90.49" rx="1.36" ry="1.36"/></clipPath><clipPath id="clip-path-32"><ellipse class="cls-1" cx="252.09" cy="82.7" rx="1.36" ry="1.36"/></clipPath></defs><title>Asset 1</title><g id="Layer_2" data-name="Layer 2"><g id="Layer_1-2" data-name="Layer 1"><g class="cls-3"><rect class="cls-4" x="5" y="160" width="68" height="60"/></g><g class="cls-5"><rect class="cls-6" x="24" y="169" width="32" height="30"/></g><g class="cls-7"><rect class="cls-4" x="71" y="193" width="68" height="60"/></g><g class="cls-8"><rect class="cls-6" x="90" y="202" width="32" height="30"/></g><g class="cls-9"><rect class="cls-4" x="152" y="193" width="68" height="60"/></g><g class="cls-10"><rect class="cls-6" x="171" y="202" width="32" height="30"/></g><g class="cls-11"><rect class="cls-4" x="218" y="160" width="68" height="60"/></g><g class="cls-12"><rect class="cls-6" x="237" y="169" width="32" height="30"/></g><g class="cls-13"><rect class="cls-4" x="23" y="77" width="40" height="48"/></g><g class="cls-14"><rect class="cls-4" x="45.73" y="92.11" width="12.73" height="12.71"/></g><g class="cls-15"><rect class="cls-4" x="45.73" y="107.13" width="12.73" height="12.71"/></g><g class="cls-16"><rect class="cls-4" x="45.73" y="99.35" width="12.73" height="12.71"/></g><g class="cls-17"><rect class="cls-4" x="99" y="70" width="40" height="48"/></g><g class="cls-18"><rect class="cls-4" x="121.73" y="85.11" width="12.73" height="12.71"/></g><g class="cls-19"><rect class="cls-4" x="121.73" y="100.13" width="12.73" height="12.71"/></g><g class="cls-20"><rect class="cls-4" x="121.73" y="92.35" width="12.73" height="12.71"/></g><g class="cls-21"><rect class="cls-4" x="156" y="42" width="40" height="48"/></g><g class="cls-22"><rect class="cls-4" x="178.73" y="57.11" width="12.73" height="12.71"/></g><g class="cls-23"><rect class="cls-4" x="178.73" y="72.13" width="12.73" height="12.71"/></g><g class="cls-24"><rect class="cls-4" x="178.73" y="64.35" width="12.73" height="12.71"/></g><g class="cls-25"><rect class="cls-4" x="95" y="9" width="40" height="48"/></g><g class="cls-26"><rect class="cls-4" x="117.73" y="24.11" width="12.73" height="12.71"/></g><g class="cls-27"><rect class="cls-4" x="117.73" y="39.13" width="12.73" height="12.71"/></g><g class="cls-28"><rect class="cls-4" x="117.73" y="31.35" width="12.73" height="12.71"/></g><g class="cls-29"><rect class="cls-4" x="171" y="96" width="40" height="48"/></g><g class="cls-30"><rect class="cls-4" x="193.73" y="111.11" width="12.73" height="12.71"/></g><g class="cls-31"><rect class="cls-4" x="193.73" y="126.13" width="12.73" height="12.71"/></g><g class="cls-32"><rect class="cls-4" x="193.73" y="118.35" width="12.73" height="12.71"/></g><g class="cls-33"><rect class="cls-4" x="223" y="54" width="40" height="48"/></g><g class="cls-34"><rect class="cls-4" x="245.73" y="69.11" width="12.73" height="12.71"/></g><g class="cls-35"><rect class="cls-4" x="245.73" y="84.13" width="12.73" height="12.71"/></g><g class="cls-36"><rect class="cls-4" x="245.73" y="76.35" width="12.73" height="12.71"/></g><line class="cls-37" x1="56.55" y1="104.81" x2="105" y2="92.82"/><line class="cls-37" x1="115.83" y1="50.81" x2="122" y2="76"/><line class="cls-37" x1="163" y1="81" x2="133" y2="94"/><line class="cls-37" x1="162" y1="67" x2="129.15" y2="39.44"/><line class="cls-37" x1="54" y1="86" x2="101.07" y2="34.24"/><line class="cls-37" x1="57" y1="113" x2="176.68" y2="126.89"/><line class="cls-37" x1="176.59" y1="120.77" x2="133" y2="104"/><line class="cls-37" x1="205.12" y1="120.82" x2="239" y2="96"/><line class="cls-37" x1="189" y1="80" x2="228" y2="87"/><path class="cls-38" d="M259,145v0H45v0C20.52,143.86,1,122.81,1,97,1,70.49,21.59,49,47,49a44.49,44.49,0,0,1,6.78.52C63.18,21.28,89.05,1,119.5,1a68.3,68.3,0,0,1,51.84,24,46.73,46.73,0,0,1,21.16-5c21,0,38.89,13.9,45.63,33.35A45.11,45.11,0,0,1,257.5,49C283.18,49,304,70.49,304,97,304,123,284,144.16,259,145Z"/><line class="cls-37" x1="44.97" y1="165" x2="69.53" y2="145.15"/><line class="cls-37" x1="106" y1="199" x2="116.71" y2="145.29"/><line class="cls-37" x1="186.11" y1="198.32" x2="176.55" y2="145.67"/><line class="cls-37" x1="251.92" y1="165.78" x2="226.42" y2="145.05"/></g></g></svg>