<svg xmlns="http://www.w3.org/2000/svg" xmlns:xlink="http://www.w3.org/1999/xlink" viewBox="0 0 34 34"><defs><style>.cls-1{fill:none;}.cls-2{clip-path:url(#clip-path);}.cls-3{clip-path:url(#clip-path-2);}.cls-4{fill:#b7b7b7;}</style><clipPath id="clip-path" transform="translate(-493 -1293)"><path class="cls-1" d="M507.75,1308.67a5.41,5.41,0,0,0-1,2.4c1.17-1.52,2.43-2.51,2.43-1.06v5.12c0,1.27,2.21,1.66,3.82-.44a5.41,5.41,0,0,0,1-2.4c-1.17,1.52-2.43,2.51-2.43,1.06v-5.12C511.57,1307,509.36,1306.57,507.75,1308.67Zm3.73-3.89a1.23,1.23,0,0,0-.65-1.6,1.2,1.2,0,0,0-1.58.66,1.23,1.23,0,0,0,.65,1.6A1.2,1.2,0,0,0,511.48,1304.78ZM510,1322a12,12,0,1,1,12-12A12,12,0,0,1,510,1322Z"/></clipPath><clipPath id="clip-path-2" transform="translate(-493 -1293)"><rect class="cls-1" width="1440" height="1762"/></clipPath></defs><title>Asset 2</title><g id="Layer_2" data-name="Layer 2"><g id="Layer_1-2" data-name="Layer 1"><g class="cls-2"><g class="cls-3"><rect class="cls-4" width="34" height="34"/></g></g></g></g></svg>