<svg xmlns="http://www.w3.org/2000/svg" xmlns:xlink="http://www.w3.org/1999/xlink" viewBox="0 0 29 26"><defs><style>.cls-1{fill:none;}.cls-2{clip-path:url(#clip-path);}.cls-3{clip-path:url(#clip-path-2);}.cls-4{fill:#fff;}</style><clipPath id="clip-path" transform="translate(-1091 -18)"><path class="cls-1" d="M1114.93,37.44a1.13,1.13,0,0,1-.62,1.45,1.08,1.08,0,0,1-1.41-.64,4,4,0,0,0-3.49-2.84,6.89,6.89,0,0,1-7.8,0,4,4,0,0,0-3.5,2.87,1.09,1.09,0,0,1-1,.72,1.06,1.06,0,0,1-.39-.07,1.13,1.13,0,0,1-.63-1.45,6.18,6.18,0,0,1,5.76-4.34,1.07,1.07,0,0,1,.72.22,4.78,4.78,0,0,0,5.9,0,1.06,1.06,0,0,1,.72-.22A6.17,6.17,0,0,1,1114.93,37.44Zm-9.42-12.2a2.83,2.83,0,1,0,2.75,2.83A2.8,2.8,0,0,0,1105.51,25.24Zm0,7.9a5.07,5.07,0,1,1,4.93-5.07A5,5,0,0,1,1105.51,33.14Z"/></clipPath><clipPath id="clip-path-2" transform="translate(-1091 -18)"><rect class="cls-1" width="1440" height="1762"/></clipPath></defs><title>Asset 1</title><g id="Layer_2" data-name="Layer 2"><g id="Layer_1-2" data-name="Layer 1"><g class="cls-2"><g class="cls-3"><rect class="cls-4" width="29" height="26"/></g></g></g></g></svg>