<svg xmlns="http://www.w3.org/2000/svg" xmlns:xlink="http://www.w3.org/1999/xlink" viewBox="0 0 100.05 103.56"><defs><style>.cls-1,.cls-2,.cls-3,.cls-7,.cls-8{fill:none;}.cls-2{fill-rule:evenodd;}.cls-3{clip-rule:evenodd;}.cls-4{clip-path:url(#clip-path);}.cls-5{clip-path:url(#clip-path-2);}.cls-6{fill:#212042;}.cls-7{stroke:#fff;stroke-width:13.96px;}.cls-7,.cls-8{stroke-miterlimit:10;}.cls-8{stroke:#212042;stroke-width:2.92px;}.cls-9{clip-path:url(#clip-path-4);}.cls-10{fill:#fefffe;}.cls-11{clip-path:url(#clip-path-6);}.cls-12{fill:#2bb7be;}.cls-13{clip-path:url(#clip-path-8);}.cls-14{isolation:isolate;}.cls-15{clip-path:url(#clip-path-10);}.cls-16{clip-path:url(#clip-path-11);}.cls-17{clip-path:url(#clip-path-12);}.cls-18{fill:#2d9da2;}.cls-19{clip-path:url(#clip-path-15);}.cls-20{clip-path:url(#clip-path-16);}.cls-21{clip-path:url(#clip-path-20);}.cls-22{clip-path:url(#clip-path-21);}.cls-23{clip-path:url(#clip-path-23);}.cls-24{fill:#2cb7be;}.cls-25{clip-path:url(#clip-path-27);}.cls-26{clip-path:url(#clip-path-28);}.cls-27{clip-path:url(#clip-path-32);}.cls-28{clip-path:url(#clip-path-33);}.cls-29{clip-path:url(#clip-path-37);}.cls-30{clip-path:url(#clip-path-38);}.cls-31{clip-path:url(#clip-path-40);}.cls-32{opacity:0.29;}.cls-33{clip-path:url(#clip-path-42);}.cls-34{clip-path:url(#clip-path-44);}.cls-35{clip-path:url(#clip-path-46);}.cls-36{clip-path:url(#clip-path-47);}.cls-37{clip-path:url(#clip-path-48);}.cls-38{fill:#e9e9e9;}.cls-39{clip-path:url(#clip-path-51);}.cls-40{clip-path:url(#clip-path-52);}.cls-41{clip-path:url(#clip-path-54);}.cls-42{fill:#1f6e72;}.cls-43{clip-path:url(#clip-path-56);}.cls-44{fill:#fff;}</style><clipPath id="clip-path" transform="translate(-1157.51 -332.25)"><path class="cls-1" d="M1242,377.43l.76.26.82.29a1.66,1.66,0,0,1,1.06,1.77l-.2,1.6-1.1,9-.18,1.48a1.6,1.6,0,0,1-1.78,1.43l-.19,0-1.37-.36-.35-.09c-4.33,15.64-13.73,26.07-28.5,31.06-15.3-5.16-24.63-15.68-28.78-31.49l-2.47.72-.24.07a1.58,1.58,0,0,1-2-1.14,1.67,1.67,0,0,1,0-.25l-.11-.88-1.15-9.59-.19-1.55a1.67,1.67,0,0,1,1-1.76l1.37-.51,1.42-.5a133.75,133.75,0,0,1,.33-19.14c8.55-6.16,8.94-7.51,12.11-12.78a87,87,0,0,1,37.37,0c3.17,5.27,3.56,6.62,12.11,12.78A127.91,127.91,0,0,1,1242,377.43Z"/></clipPath><clipPath id="clip-path-2" transform="translate(-1157.51 -332.25)"><rect class="cls-1" width="1440" height="2856"/></clipPath><clipPath id="clip-path-4" transform="translate(-1157.51 -332.25)"><path class="cls-1" d="M1210.8,423.53h0q-35.05-12.53-30.63-65.76c8.51-6.14,8.9-7.48,12.05-12.73a86.61,86.61,0,0,1,37.2,0c3.15,5.25,3.55,6.59,12.05,12.73q4.42,53.23-30.63,65.76h0Z"/></clipPath><clipPath id="clip-path-6" transform="translate(-1157.51 -332.25)"><path class="cls-1" d="M1210.8,419.72h0Q1179,408.36,1183,360.17c7.72-5.56,8.08-6.77,10.94-11.53a78.82,78.82,0,0,1,33.76,0c2.86,4.76,3.22,6,10.94,11.53q4,48.19-27.8,59.53h0Z"/></clipPath><clipPath id="clip-path-8" transform="translate(-1157.51 -332.25)"><path class="cls-3" d="M1210.8,419.72h0Q1179,408.36,1183,360.17c7.72-5.56,8.08-6.77,10.94-11.53a78.82,78.82,0,0,1,33.76,0c2.86,4.76,3.22,6,10.94,11.53q4,48.19-27.8,59.53h0Z"/></clipPath><clipPath id="clip-path-10" transform="translate(-1157.51 -332.25)"><rect class="cls-1" x="1210" y="343" width="32" height="88"/></clipPath><clipPath id="clip-path-11" transform="translate(-1157.51 -332.25)"><rect class="cls-1" x="1210.8" y="343" width="31.13" height="87.81"/></clipPath><clipPath id="clip-path-12" transform="translate(-1157.51 -332.25)"><rect class="cls-1" x="1180" y="346" width="62" height="74"/></clipPath><clipPath id="clip-path-15" transform="translate(-1157.51 -332.25)"><rect class="cls-1" x="1162" y="337" width="91" height="47"/></clipPath><clipPath id="clip-path-16" transform="translate(-1157.51 -332.25)"><path class="cls-1" d="M1182.55,383.31q17-5.44,27.53-5.44t29,5.44l13.48-1.11V343.84s-35.73-6.59-42.49-6.59h-36.24l-11.32,23Z"/></clipPath><clipPath id="clip-path-20" transform="translate(-1157.51 -332.25)"><rect class="cls-1" x="1186" y="360" width="49" height="11"/></clipPath><clipPath id="clip-path-21" transform="translate(-1157.51 -332.25)"><path class="cls-1" d="M1212,362.13a1.94,1.94,0,0,1,1.9,2.11l0,3.44-1.41,0,0-3.12a1,1,0,0,0-1-1.14,1.05,1.05,0,0,0-1.09,1l0,3.2-1.46,0,.08-7.31,1.46,0,0,2.56A1.86,1.86,0,0,1,1212,362.13Zm-6.13,5.73a3.72,3.72,0,0,1-2.37-.71l.59-1.08a2.87,2.87,0,0,0,1.76.53c.39,0,.66-.2.65-.44s-.4-.42-.93-.55c-1.07-.23-1.91-.49-2-1.56a1.81,1.81,0,0,1,2-1.84,3.65,3.65,0,0,1,2.07.58l-.55,1.11a2.84,2.84,0,0,0-1.47-.42c-.36,0-.61.16-.6.35s.23.37.93.53c.9.2,1.91.47,2,1.65S1207.14,367.8,1205.87,367.86Zm-5.86-.59a1.14,1.14,0,0,0,1.11-.9l-.05-.5a3.16,3.16,0,0,0-1.13-.08c-.53.06-.92.43-.87.86S1199.5,367.32,1200,367.27Zm-.13-4.61a2.13,2.13,0,0,1,2.49,2l.32,3.22-1.41.15-.05-.54a2,2,0,0,1-1.45.83,1.77,1.77,0,0,1-2.12-1.51,2,2,0,0,1,2-2,3.61,3.61,0,0,1,1.34.13v-.1a1,1,0,0,0-1.29-.94,2.89,2.89,0,0,0-1.3.53l-.59-1A4.64,4.64,0,0,1,1199.87,362.66Zm-3.23,4.62.51.92a1.88,1.88,0,0,1-1.1.68,1.51,1.51,0,0,1-1.8-1.35l-.43-2.61-.7.13-.2-1.22.7-.13-.24-1.46,1.38-.25.24,1.46,1.11-.2.2,1.22-1.11.2.39,2.37a.54.54,0,0,0,.58.51A.74.74,0,0,0,1196.65,367.27Zm-6,2.87a4.26,4.26,0,0,1-3.25-.33l.56-1.25a3.27,3.27,0,0,0,2.42.3c.72-.2,1-.65.89-1.08s-.55-.54-1.63-.5c-1.49.06-2.59-.08-2.94-1.42a2.35,2.35,0,0,1,1.91-2.85,3.83,3.83,0,0,1,2.85.23l-.47,1.28a3.07,3.07,0,0,0-2.1-.24c-.61.17-.89.61-.79,1s.57.56,1.66.51c1.52-.07,2.58.11,2.91,1.4S1192.26,369.69,1190.64,370.15Z"/></clipPath><clipPath id="clip-path-23" transform="translate(-1157.51 -332.25)"><path class="cls-1" d="M1231.54,369a1.38,1.38,0,0,0,1.69-1.17,1.44,1.44,0,0,0-1-1.83,1.32,1.32,0,0,0-1.57,1l-.09.41A1.38,1.38,0,0,0,1231.54,369Zm1.39-4.15a2.59,2.59,0,0,1,1.69,3.33c-.37,1.62-1.61,2.51-3,2.18a2.14,2.14,0,0,1-1.49-1.29l-.17.74-1.42-.36,1.63-7.11,1.42.36-.59,2.58A2.07,2.07,0,0,1,1232.93,364.84Zm-6.22-1.23,1.45.23-.79,5.35-1.45-.23.1-.67a1.8,1.8,0,0,1-1.67.55,2,2,0,0,1-1.6-2.37l.51-3.4,1.4.23-.46,3.08a1,1,0,1,0,2,.41v0Zm-6.44-2.65,1.47.12-.53,7.17-1.47-.12.22-3-3.13-.25-.22,3-1.47-.12.53-7.17,1.47.12-.21,2.82,3.13.25Z"/></clipPath><clipPath id="clip-path-27" transform="translate(-1157.51 -332.25)"><rect class="cls-1" x="1206" y="348" width="10" height="9"/></clipPath><clipPath id="clip-path-28" transform="translate(-1157.51 -332.25)"><polygon class="cls-1" points="1210.8 355.26 1208.18 356.69 1208.68 353.66 1206.57 351.51 1209.49 351.06 1210.8 348.3 1212.1 351.06 1215.03 351.51 1212.91 353.66 1213.41 356.69 1210.8 355.26"/></clipPath><clipPath id="clip-path-32" transform="translate(-1157.51 -332.25)"><rect class="cls-1" x="1218" y="351" width="7" height="7"/></clipPath><clipPath id="clip-path-33" transform="translate(-1157.51 -332.25)"><polygon class="cls-1" points="1220.86 356.37 1218.6 356.94 1219.54 354.73 1218.32 352.67 1220.63 352.91 1222.13 351.06 1222.62 353.43 1224.77 354.34 1222.76 355.56 1222.59 357.98 1220.86 356.37"/></clipPath><clipPath id="clip-path-37" transform="translate(-1157.51 -332.25)"><rect class="cls-1" x="1195" y="351" width="8" height="7"/></clipPath><clipPath id="clip-path-38" transform="translate(-1157.51 -332.25)"><polygon class="cls-1" points="1199.47 356.37 1201.72 356.94 1200.79 354.73 1202.01 352.67 1199.7 352.91 1198.2 351.06 1197.71 353.43 1195.56 354.34 1197.56 355.56 1197.73 357.98 1199.47 356.37"/></clipPath><clipPath id="clip-path-40" transform="translate(-1157.51 -332.25)"><path class="cls-1" d="M1178.31,380.41l1.29-.48c21.18-7.72,42-6.91,62.26.23l.76.27a1.66,1.66,0,0,1,1.06,1.77l-.18,1.52-1.06,8.73-.17,1.38a1.6,1.6,0,0,1-1.78,1.44l-.19,0-1.27-.33c-23.75-6.19-34.91-6.74-58.17.19l-.17.05a1.58,1.58,0,0,1-2-1.14,1.68,1.68,0,0,1,0-.25l-.1-.79-1.11-9.3-.17-1.47A1.66,1.66,0,0,1,1178.31,380.41Z"/></clipPath><clipPath id="clip-path-42" transform="translate(-1157.51 -332.25)"><path class="cls-1" d="M1177.36,377.86l1.36-.51c21.79-7.94,43.15-7.1,64,.23l.81.29a1.66,1.66,0,0,1,1.06,1.77l-.19,1.6-1.09,9-.18,1.47a1.6,1.6,0,0,1-1.78,1.43l-.19,0-1.35-.36c-24.43-6.37-35.9-6.93-59.83.19l-.23.07a1.58,1.58,0,0,1-2-1.14,1.81,1.81,0,0,1-.05-.25l-.1-.87-1.14-9.57-.18-1.55A1.67,1.67,0,0,1,1177.36,377.86Z"/></clipPath><clipPath id="clip-path-44" transform="translate(-1157.51 -332.25)"><path class="cls-3" d="M1177.36,377.86l1.36-.51c21.79-7.94,43.15-7.1,64,.23l.81.29a1.66,1.66,0,0,1,1.06,1.77l-.19,1.6-1.09,9-.18,1.47a1.6,1.6,0,0,1-1.78,1.43l-.19,0-1.35-.36c-24.43-6.37-35.9-6.93-59.83.19l-.23.07a1.58,1.58,0,0,1-2-1.14,1.81,1.81,0,0,1-.05-.25l-.1-.87-1.14-9.57-.18-1.55A1.67,1.67,0,0,1,1177.36,377.86Z"/></clipPath><clipPath id="clip-path-46" transform="translate(-1157.51 -332.25)"><rect class="cls-1" x="1210" y="350" width="43" height="52"/></clipPath><clipPath id="clip-path-47" transform="translate(-1157.51 -332.25)"><rect class="cls-1" x="1210.84" y="350.18" width="41.61" height="51.41"/></clipPath><clipPath id="clip-path-48" transform="translate(-1157.51 -332.25)"><rect class="cls-1" x="1176" y="369" width="69" height="25"/></clipPath><clipPath id="clip-path-51" transform="translate(-1157.51 -332.25)"><rect class="cls-1" x="1181" y="376" width="59" height="12"/></clipPath><clipPath id="clip-path-52" transform="translate(-1157.51 -332.25)"><path class="cls-1" d="M1238.37,386.19l.11.79a1.45,1.45,0,0,1-1,.11,1.27,1.27,0,0,1-.89-1.62l.6-2.41-.62-.17.22-.87.62.17.31-1.23,1,.27-.31,1.23,1,.26-.22.87-1-.26-.57,2.29a.49.49,0,0,0,.29.63A.61.61,0,0,0,1238.37,386.19Zm-4.52-.15,1-4.51,1,.24-1,4.51Zm1.65-5.07a.64.64,0,0,1-.45-.75.6.6,0,0,1,.72-.46.63.63,0,0,1,.45.74A.61.61,0,0,1,1235.49,381Zm-4.81,3.14a1.18,1.18,0,0,0,1.42-1,1.22,1.22,0,0,0-1-1.47,1.17,1.17,0,0,0-1.41,1A1.22,1.22,0,0,0,1230.68,384.11Zm1.78-3.07,1,.2-.72,4.06a2.06,2.06,0,0,1-2.63,1.56,3.14,3.14,0,0,1-1.77-1l.52-.71a2.09,2.09,0,0,0,1.26.73c.86.17,1.48-.16,1.6-.85l.11-.59a1.8,1.8,0,0,1-1.63.49,2.07,2.07,0,0,1-1.58-2.54,2,2,0,0,1,2.35-1.78,1.83,1.83,0,0,1,1.35,1.07Zm-6.58-.25a1.22,1.22,0,0,0-1.32.82l2.31.32A1.13,1.13,0,0,0,1225.88,380.79Zm-.35,2.88a1.69,1.69,0,0,0,1.2-.3l.57.8a2.6,2.6,0,0,1-1.88.46,2.36,2.36,0,0,1-2-2.73,2.26,2.26,0,0,1,2.54-2.08c1.36.19,2,1.37,1.8,3.06l-3.32-.45A1.27,1.27,0,0,0,1225.53,383.67Zm-5.92-.82,3,.27-.08,1-4.08-.36.51-6.12,1.06.1Zm-7-.17a1.51,1.51,0,1,0-1.24-1.53A1.35,1.35,0,0,0,1212.61,382.69Zm1.38-5.4,1,0-.15,6.25-1,0,0-.72a1.8,1.8,0,0,1-1.55.78,2.46,2.46,0,0,1,.11-4.84,1.81,1.81,0,0,1,1.52.86Zm-6.61,2.42a1.24,1.24,0,0,0-1.2,1l2.33,0A1.12,1.12,0,0,0,1207.38,379.71Zm0,2.91a1.71,1.71,0,0,0,1.14-.48l.67.71a2.63,2.63,0,0,1-1.79.74,2.33,2.33,0,0,1-2.35-2.4,2.29,2.29,0,0,1,2.22-2.44c1.37,0,2.18,1.05,2.21,2.76l-3.35,0A1.25,1.25,0,0,0,1207.43,382.62Zm-4.25,1L1203,379l1,0,.19,4.62Zm.32-5.34a.62.62,0,0,1,0-1.24.61.61,0,0,1,.62.59A.62.62,0,0,1,1203.49,378.24Zm-2.46.45,0,.38,1-.07.06.9-1,.07.23,3.71-1,.07-.23-3.71-.64,0-.06-.9.64,0,0-.48a1.25,1.25,0,0,1,1.16-1.42,1.46,1.46,0,0,1,1,.3l-.26.72a.61.61,0,0,0-.45-.14A.48.48,0,0,0,1201,378.7Zm-3.22,5.29-.4-4.61,1-.1.4,4.61Zm.07-5.35a.62.62,0,0,1-.11-1.24.61.61,0,0,1,.64.56A.63.63,0,0,1,1197.88,378.63Zm-2.84,1.93a1.71,1.71,0,0,1,1.46-1.19l.11.92a1.47,1.47,0,0,0-1.41,1.66l.27,2.32-1,.13-.53-4.59,1-.13Zm-4.24.63a1.26,1.26,0,0,0-1,1.19l2.3-.41A1.1,1.1,0,0,0,1190.8,381.19Zm.48,2.86a1.74,1.74,0,0,0,1.06-.66l.77.59a2.67,2.67,0,0,1-1.66,1,2.29,2.29,0,0,1-2.68-2,2.33,2.33,0,0,1,1.83-2.77c1.35-.24,2.31.68,2.59,2.37l-3.3.59A1.23,1.23,0,0,0,1191.28,384.06Zm-5.25-4.28,1.15-.31-.91,6.59-1.15.31-3.86-5.31,1.15-.31,2.93,4Z"/></clipPath><clipPath id="clip-path-54" transform="translate(-1157.51 -332.25)"><polygon class="cls-1" points="1203.75 400.31 1200.22 404.12 1210.66 414.69 1224.87 399.26 1221.21 395.58 1210.54 407.17 1203.75 400.31"/></clipPath><clipPath id="clip-path-56" transform="translate(-1157.51 -332.25)"><polygon class="cls-1" points="1203.75 397 1200.22 400.8 1210.66 411.37 1224.87 395.94 1221.21 392.27 1210.54 403.86 1203.75 397"/></clipPath></defs><title>Asset 4</title><g id="Layer_2" data-name="Layer 2"><g id="Layer_1-2" data-name="Layer 1"><g class="cls-4"><g class="cls-5"><rect class="cls-6" x="13.49" y="5.75" width="78.64" height="90.84"/></g></g><g class="cls-5"><path class="cls-7" d="M1242,377.43l.76.26.82.29a1.66,1.66,0,0,1,1.06,1.78l-.2,1.6-1.1,9-.18,1.48a1.6,1.6,0,0,1-1.78,1.43l-.19,0-1.37-.36-.35-.09c-4.33,15.64-13.73,26.07-28.51,31.06-15.3-5.16-24.63-15.68-28.78-31.49l-2.47.72-.24.07a1.58,1.58,0,0,1-2-1.14,1.71,1.71,0,0,1,0-.25l-.11-.88-1.15-9.59-.19-1.55a1.66,1.66,0,0,1,1-1.76l1.37-.51,1.42-.5a133.75,133.75,0,0,1,.33-19.14c8.55-6.16,8.94-7.51,12.11-12.78a87,87,0,0,1,37.37,0c3.16,5.27,3.56,6.62,12.11,12.78A127.91,127.91,0,0,1,1242,377.43Z" transform="translate(-1157.51 -332.25)"/><path class="cls-8" d="M1242,377.43l.76.26.82.29a1.66,1.66,0,0,1,1.06,1.78l-.2,1.6-1.1,9-.18,1.48a1.6,1.6,0,0,1-1.78,1.43l-.19,0-1.37-.36-.35-.09c-4.33,15.64-13.73,26.07-28.51,31.06-15.3-5.16-24.63-15.68-28.78-31.49l-2.47.72-.24.07a1.58,1.58,0,0,1-2-1.14,1.71,1.71,0,0,1,0-.25l-.11-.88-1.15-9.59-.19-1.55a1.66,1.66,0,0,1,1-1.76l1.37-.51,1.42-.5a133.75,133.75,0,0,1,.33-19.14c8.55-6.16,8.94-7.51,12.11-12.78a87,87,0,0,1,37.37,0c3.16,5.27,3.56,6.62,12.11,12.78A127.91,127.91,0,0,1,1242,377.43Z" transform="translate(-1157.51 -332.25)"/></g><g class="cls-9"><g class="cls-5"><rect class="cls-10" x="17.15" y="5.75" width="72.3" height="90.53"/></g></g><g class="cls-11"><g class="cls-5"><rect class="cls-12" x="20.03" y="9.57" width="66.54" height="82.9"/></g></g><g class="cls-13"><g class="cls-5"><g class="cls-14"><g class="cls-15"><g class="cls-16"><g class="cls-17"><rect class="cls-18" x="48.28" y="5.75" width="41.13" height="97.81"/></g></g></g></g></g></g><g class="cls-13"><g class="cls-5"><g class="cls-14"><g class="cls-19"><g class="cls-20"><g class="cls-17"><rect class="cls-6" width="100.05" height="56.06"/></g></g></g></g></g></g><g class="cls-13"><g class="cls-5"><g class="cls-14"><g class="cls-21"><g class="cls-22"><g class="cls-17"><rect class="cls-10" x="24.1" y="23.07" width="37.29" height="20.01"/></g></g><g class="cls-23"><g class="cls-17"><rect class="cls-24" x="52.62" y="23.34" width="29.58" height="19.83"/></g></g></g></g></g></g><g class="cls-13"><g class="cls-5"><g class="cls-14"><g class="cls-25"><g class="cls-26"><g class="cls-17"><rect class="cls-10" x="44.05" y="11.05" width="18.46" height="18.39"/></g></g></g></g></g></g><g class="cls-13"><g class="cls-5"><g class="cls-14"><g class="cls-27"><g class="cls-28"><g class="cls-17"><rect class="cls-10" x="1213.05" y="345.94" width="16.6" height="16.66" transform="translate(-575.37 1121.39) rotate(-76)"/></g></g></g></g></g></g><g class="cls-13"><g class="cls-5"><g class="cls-14"><g class="cls-29"><g class="cls-30"><g class="cls-17"><rect class="cls-10" x="1190.64" y="345.97" width="16.66" height="16.6" transform="translate(-1207.61 -31.68) rotate(-14)"/></g></g></g></g></g></g><g class="cls-31"><g class="cls-5"><rect class="cls-32" x="14.75" y="37.21" width="76.41" height="30.81"/></g></g><g class="cls-33"><g class="cls-5"><rect class="cls-10" x="13.8" y="34.48" width="78.32" height="31.42"/></g></g><g class="cls-34"><g class="cls-5"><g class="cls-14"><g class="cls-35"><g class="cls-36"><g class="cls-37"><rect class="cls-38" x="48.33" y="12.93" width="51.61" height="61.41"/></g></g></g></g></g></g><g class="cls-34"><g class="cls-5"><g class="cls-14"><g class="cls-39"><g class="cls-40"><g class="cls-37"><rect class="cls-6" x="18.75" y="39.75" width="68.1" height="20.13"/></g></g></g></g></g></g><g class="cls-41"><g class="cls-5"><rect class="cls-42" x="37.7" y="58.34" width="34.66" height="29.1"/></g></g><g class="cls-43"><g class="cls-5"><rect class="cls-44" x="37.7" y="55.02" width="34.66" height="29.1"/></g></g></g></g></svg>